<svg xmlns="http://www.w3.org/2000/svg" width="1280" height="720" viewBox="0 0 1280 720">
  <defs>
    <linearGradient id="sky" x1="0" y1="0" x2="0" y2="1">
      <stop offset="0" stop-color="#07131e"/>
      <stop offset="0.58" stop-color="#18354a"/>
      <stop offset="1" stop-color="#2d4b58"/>
    </linearGradient>
    <linearGradient id="floor" x1="0" y1="0" x2="0" y2="1">
      <stop offset="0" stop-color="#263c46"/>
      <stop offset="1" stop-color="#0b1117"/>
    </linearGradient>
    <linearGradient id="tower" x1="0" y1="0" x2="1" y2="0">
      <stop offset="0" stop-color="#0b1720"/>
      <stop offset="0.55" stop-color="#1d3340"/>
      <stop offset="1" stop-color="#091118"/>
    </linearGradient>
    <radialGradient id="haze" cx="50%" cy="45%" r="55%">
      <stop offset="0" stop-color="#7ac6d9" stop-opacity="0.18"/>
      <stop offset="1" stop-color="#7ac6d9" stop-opacity="0"/>
    </radialGradient>
  </defs>
  <rect width="1280" height="720" fill="url(#sky)"/>
  <rect width="1280" height="500" fill="url(#haze)"/>
  <g opacity="0.92">
    <rect x="0" y="190" width="185" height="330" fill="url(#tower)"/>
    <rect x="25" y="150" width="110" height="40" fill="#101e28"/>
    <rect x="63" y="72" width="34" height="78" fill="#0d1922"/>
    <rect x="1095" y="160" width="185" height="360" fill="url(#tower)"/>
    <rect x="1140" y="112" width="95" height="48" fill="#101e28"/>
    <rect x="1172" y="48" width="30" height="64" fill="#0d1922"/>
    <path d="M180 325 L420 245 L860 245 L1100 325 L1100 510 L180 510 Z" fill="#132630"/>
    <path d="M250 326 L455 270 L825 270 L1030 326 L1030 465 L250 465 Z" fill="#1d3540"/>
  </g>
  <g fill="#76d7e8" opacity="0.72">
    <rect x="46" y="232" width="9" height="150"/>
    <rect x="126" y="260" width="9" height="112"/>
    <rect x="1128" y="215" width="9" height="160"/>
    <rect x="1218" y="245" width="9" height="128"/>
    <rect x="348" y="306" width="84" height="5"/>
    <rect x="848" y="306" width="84" height="5"/>
  </g>
  <g fill="#e4a85b" opacity="0.82">
    <rect x="200" y="440" width="150" height="7"/>
    <rect x="930" y="440" width="150" height="7"/>
    <rect x="592" y="288" width="96" height="6"/>
  </g>
  <path d="M0 486 L1280 486 L1280 720 L0 720 Z" fill="url(#floor)"/>
  <g stroke="#45616d" stroke-width="2" opacity="0.58">
    <path d="M640 486 L110 720"/>
    <path d="M640 486 L330 720"/>
    <path d="M640 486 L520 720"/>
    <path d="M640 486 L760 720"/>
    <path d="M640 486 L950 720"/>
    <path d="M640 486 L1170 720"/>
    <path d="M0 545 H1280"/>
    <path d="M0 620 H1280"/>
  </g>
  <path d="M0 492 H1280" stroke="#78cfe0" stroke-width="3" opacity="0.5"/>
  <rect y="675" width="1280" height="45" fill="#05090d" opacity="0.32"/>
</svg>
